Coordinates
version=1
nRows=4
nColumns=63
inDegrees=yes

Units are S.I. units (second, meters, Newtons, ...)
If the header above contains a line with 'inDegrees', this indicates whether rotational values are in degrees (yes) or radians (no).

endheader
time	pelvis_tilt	pelvis_list	pelvis_rotation	pelvis_tx	pelvis_ty	pelvis_tz	hip_flexion_r	hip_adduction_r	hip_rotation_r	knee_angle_r	knee_angle_r_beta	ankle_angle_r	subtalar_angle_r	mtp_angle_r	hip_flexion_l	hip_adduction_l	hip_rotation_l	knee_angle_l	knee_angle_l_beta	ankle_angle_l	subtalar_angle_l	mtp_angle_l	L5_S1_Flex_Ext	L5_S1_Lat_Bending	L5_S1_axial_rotation	L4_L5_Flex_Ext	L4_L5_Lat_Bending	L4_L5_axial_rotation	L3_L4_Flex_Ext	L3_L4_Lat_Bending	L3_L4_axial_rotation	L2_L3_Flex_Ext	L2_L3_Lat_Bending	L2_L3_axial_rotation	L1_L2_Flex_Ext	L1_L2_Lat_Bending	L1_L2_axial_rotation	L1_T12_Flex_Ext	L1_T12_Lat_Bending	L1_T12_axial_rotation	Abs_r3	Abs_r2	Abs_r1	Abs_t1	Abs_t2	neck_flexion	neck_bending	neck_rotation	arm_flex_r	arm_add_r	arm_rot_r	elbow_flex_r	pro_sup_r	wrist_flex_r	wrist_dev_r	arm_flex_l	arm_add_l	arm_rot_l	elbow_flex_l	pro_sup_l	wrist_flex_l	wrist_dev_l
      0.00000000	      5.23195583	     -5.38139211	     95.53795172	      0.12011772	      0.68927335	      0.79195118	      7.10266765	      0.20170627	    -17.09329092	      9.04007653	      0.15777910	     36.41489240	     17.57799587	      0.00000000	     12.38365883	     -4.17095325	    -10.30877875	     15.17404003	      0.26483696	     40.16376382	     17.23084368	      0.00000000	      0.69387444	      0.47688915	     -1.44881471	      1.28859423	      0.63426257	     -1.53936563	      1.13996633	      1.15950828	     -1.53936563	      0.79302910	      1.15950828	     -1.26771287	      0.64433181	      0.97247236	     -1.17716195	      0.39647986	      0.73870130	     -1.08661103	      4.95627577	      5.39466546	     -8.05787278	      0.00000000	      0.00000000	     28.41337418	      4.53749602	      3.52064529	     16.85111189	      0.91035931	    101.50099009	     18.06336070	      4.39324143	     -4.99286407	     -8.02519117	     20.05436231	     10.22654853	    152.02868333	      5.29513352	      2.01147034	      1.93116049	    -13.19284909
      0.01694915	      4.17277761	     -5.02825992	     92.85248362	      0.12419085	      0.68951365	      0.79183151	      7.19486560	     -0.57779927	    -14.88170384	      9.74067567	      0.17000686	     37.07694653	     17.76293050	      0.00000000	     11.19185178	     -3.62745829	    -12.28993256	     14.65228776	      0.25573066	     39.84577741	     17.41601885	      0.00000000	      0.64223471	      0.33982323	     -0.72830796	      1.19269407	      0.45196490	     -0.77382720	      1.05512740	      0.82624621	     -0.77382720	      0.73401005	      0.82624621	     -0.63726946	      0.59637915	      0.69296754	     -0.59175022	      0.36697291	      0.52638619	     -0.54623097	      4.58741828	      3.84414840	     -4.05063037	      0.00000000	      0.00000000	     28.40649848	      3.22638855	      0.57875246	     16.05509687	      0.85140272	     95.73828449	     18.51378929	      3.88170899	     -4.37340733	     -7.53922076	     20.89671481	     10.05548012	    153.21969516	      6.60735700	      2.23887228	      1.44617597	    -12.88694848
      0.03389831	      3.37826577	     -4.86733531	     91.05874841	      0.12695408	      0.68955397	      0.79162899	      7.39084858	     -1.20190738	    -13.57219849	     10.24934723	      0.17888486	     37.62062378	     18.06701462	      0.00000000	     10.50139039	     -3.14117405	    -13.63747845	     14.30655800	      0.24969654	     39.60551703	     17.61420543	      0.00000000	      0.61716679	      0.23808140	     -0.26647078	      1.14614045	      0.31664826	     -0.28312520	      1.01394332	      0.57887112	     -0.28312520	      0.70535993	      0.57887112	     -0.23316193	      0.57310108	      0.48549559	     -0.21650750	      0.35264911	      0.36878809	     -0.19985308	      4.40836068	      2.69322442	     -1.48203051	      0.00000000	      0.00000000	     28.40535639	      2.42608138	     -1.30775326	     15.43376022	      0.79343837	     90.68113236	     19.09173801	      3.93011273	     -4.04025546	     -6.70446242	     21.46603904	      9.81637127	    152.68586878	      7.67418327	      2.47161998	      1.13988665	    -12.70040644
      0.05084746	      2.80139175	     -4.90152332	     89.12439585	      0.12956061	      0.68951397	      0.79136756	      7.78311607	     -1.56536073	    -11.82138040	     10.61639781	      0.18529110	     37.95658809	     18.16132311	      0.00000000	      9.99980773	     -2.84241079	    -15.33006960	     13.78979172	      0.24067727	     39.43775962	     17.73881226	      0.00000000	      0.61736571	      0.17905025	      0.09787104	      1.14650986	      0.23813683	      0.10398798	      1.01427013	      0.43534277	      0.10398798	      0.70558727	      0.43534277	      0.08563716	      0.57328580	      0.36511926	      0.07952022	      0.35276277	      0.27734883	      0.07340328	      4.40978154	      2.02545221	      0.54432936	      0.00000000	      0.00000000	     28.40803807	      2.51954309	     -1.31375850	     15.24375361	      0.83531433	     88.53972388	     19.38215392	      3.69074259	     -3.80502157	     -6.00476309	     21.73454300	      9.51568973	    151.39041013	      8.36618555	      2.55351738	      1.02481329	    -12.77625327
